<svg width="1712" height="500" viewBox="0 0 1712 500" fill="none" xmlns="http://www.w3.org/2000/svg">
<g clip-path="url(#clip0_13_24)">
<path d="M287 85.5V333H343.4V235.2L419 333H490.7L405.5 230.7C435.8 221.1 456.2 196.2 456.2 159C456.2 110.4 421.4 85.5 375.5 85.5H287ZM343.4 195.3V130.5H350C371.3 130.5 396.8 132 396.8 162.9C396.8 193.8 371.3 195.3 350 195.3H343.4ZM640.177 85.5H583.777V333H640.177V85.5ZM810.005 333H854.405L958.205 85.5H894.605L832.205 248.1L769.805 85.5H706.205L810.005 333ZM1175.59 85.5H1123.39L1023.49 333H1084.09L1102.39 283.5H1196.59L1214.89 333H1275.49L1175.59 85.5ZM1177.39 234H1121.59L1149.19 162H1149.79L1177.39 234ZM1423.58 85.5H1367.18V333H1423.58V85.5Z" fill="black"/>
<circle cx="1278.5" cy="149.5" r="19.5" fill="#FED000" stroke="black" stroke-width="10"/>
</g>
<defs>
<clipPath id="clip0_13_24">
<rect width="1712" height="500" fill="white"/>
</clipPath>
</defs>
</svg>
